<?xml version="1.0" encoding="utf-8"?>
<!-- Generator: Adobe Illustrator 16.0.0, SVG Export Plug-In . SVG Version: 6.00 Build 0)  -->
<!DOCTYPE svg PUBLIC "-//W3C//DTD SVG 1.1//EN" "http://www.w3.org/Graphics/SVG/1.1/DTD/svg11.dtd">
<svg version="1.1" id="Ebene_1" xmlns="http://www.w3.org/2000/svg" xmlns:xlink="http://www.w3.org/1999/xlink" x="0px" y="0px"
	 width="841.89px" height="595.28px" viewBox="0 0 841.89 595.28" enable-background="new 0 0 841.89 595.28" xml:space="preserve">
<g>
	<path d="M308.721,267.004c0.788,8.678-0.396,25.246,8.284,39.052c8.679,13.807,22.484,36.295,21.696,44.184
		c-0.789,7.889-26.035,123.076-31.164,134.518c0,0,54.832,28.139,96.384,30.77c41.55,2.629,57.33-2.631,73.635-18.936
		c0,0,14.203-79.686,18.148-92.309c3.944-12.623,15.779-33.137,25.246-43.393c9.466-10.256,19.723-26.037,22.09-48.127
		c2.365-22.09,3.102-48.738,6.225-61.361c3.125-12.625,9.029-32.344,4.297-37.078c-4.732-4.733-23.934-43.573-27.09-50.674
		c-3.155-7.101-18.146-10.257-30.768-10.257c-1.975-9.072-7.101-26.825-18.148-29.587c-11.044-2.761-22.879-2.366-31.557-3.943
		c-4.734-7.89-18.541-20.119-24.064-25.642c-11.044,0.788-23.667,0-23.667,0l-19.33-17.357c-7.1,3.156-32.741,6.312-37.475,7.496
		c-6.312,2.366-23.275,28.796-24.458,35.503c-6.312,5.127-19.329,21.302-20.513,22.484c-1.974,7.102-1.974,35.897-3.945,44.183
		c-2.762,10.256-9.468,28.797,0,42.209S307.932,258.326,308.721,267.004 M331.494,107.435c-1.974,4.49,9.252,3.355,9.709,5.327
		c0.456,1.974-9.041,0.464-14.989,4.528c-4.951,3.383-3.019,1.32-2.229-2.229c0.788-3.551,6.951-11.088,6.951-11.088
		c4.645-5.781,3.968-8.55,9.491-5.59C345.95,101.341,333.466,102.943,331.494,107.435 M380.515,87.385
		c7.32,4.721,7.425,7.959,5.468,10.569c1.449-0.797-0.733,0.87-0.733,0.87c0.269-0.282,0.513-0.573,0.733-0.87
		c-0.73,0.401-2.374,1.424-5.729,3.631c-9.995,6.576-11.047-9.991-19.987-5.258c-8.938,4.733-11.309,2.892-13.149-0.527
		c-1.842-3.419-7.891-2.367-5.26-5.522c2.631-3.156,3.944-0.264,14.047-2.893C366.006,84.754,372.362,82.126,380.515,87.385
		 M435.742,115.262c3.234,3.352-2.892,2.629-7.102,5.259c-4.208,2.631-2.366,13.676-5.785,29.981
		c-3.418,16.303-6.31,54.699-11.57,57.594c-5.261,2.893-8.679,0.523-8.153-3.814c0.525-4.339,5.522-2.233,6.575-6.443
		c1.052-4.207,9.204-65.482,9.731-71.27c0.526-5.786-15.779-7.101-16.044-11.307c-0.263-4.207-4.996-9.468-8.678-8.221
		c-3.681,1.249-5.522-3.613,1.577-6.244c7.101-2.631,19.199-2.631,23.67,0C424.433,103.428,428.64,107.901,435.742,115.262
		 M488.604,154.446c1.181,3.297-9.996-1.313-14.204,1.314c-4.206,2.629-3.153,12.361-6.311,26.611
		c-3.155,14.248-12.361,43.346-18.146,51.234c-5.785,7.89-15.254,7.626-15.975,6.048c-0.723-1.577,27.809-70.742,33.593-83.629
		c5.785-12.887,0.789-14.729-3.944-18.672c-4.733-3.945-12.625,1.578-21.564,1.972c-8.939,0.395-10.519-15.123-4.471-15.123
		s30.769,1.579,36.817,3.156C480.451,128.936,485.007,144.421,488.604,154.446 M442.317,416.117
		c3.156-5.785-28.402-17.355-28.929-25.77c-0.525-8.418,35.239,10.518,47.864,3.154c12.623-7.365-25.773-11.047-18.936-16.307
		c6.836-5.26,23.669-4.207,26.824-11.57s-19.462-14.729-7.364-14.729c12.099,0,25.244-2.629,19.461-7.889
		c-5.786-5.262-54.177-41.025-44.183-50.494c9.996-9.468,17.357-18.935,27.088-11.045c9.732,7.889,18.33,16.83,18.5,2.103
		c0.172-14.727,15.95-18.408,30.153-8.415c14.201,9.993,22.09-0.666,7.362-9.8c-14.726-9.135,15.781-41.747,15.256-49.11
		c-0.528-7.362-12.099,2.63-16.833,0c-4.732-2.628,2.904-27.57,0-25.246c-23.668,18.935-25.246,65.222-54.438,64.694
		c2.368-11.045,12.361-0.524,18.146-27.876c5.787-27.351,12.099-15.517,15.779-23.537c3.683-8.021,8.974-19.593,7.905-25.905
		c-1.067-6.311-16.321-2.101-21.58-4.207c-5.26-2.104-9.469-11.045-4.734-12.097c4.734-1.053,34.714-4.209,41.025,3.68
		c6.302,7.877,27.046,52.953,27.116,56.846c0-0.014,0.002-0.031,0.002-0.047l-0.029-1.306c0.025,0.381,0.037,0.334,0.033,0.82
		l-0.002,0.56c0-0.006-0.064,1.821-0.064,1.813c-2.467,15.465-7.314,52.146-10.445,72.078c-1.807,11.508-0.172,19.403-16.346,49.383
		c-7.379,13.676-18.457,30.543-32.231,37.031c-25.252,11.896,2.621,3.219-2.111,15.842c-4.733,12.623-4.733,12.623-5.04,28.135
		l-12.208,67.607c-6.576,3.686-15.136,4.225-21.521-13.176c-5.358-14.609-8.678-23.408-12.885-12.361
		c-4.209,11.045-7.652,31.295-14.345,20.252c-7.135-11.775-3.54-29.455,10.136-36.82c13.673-7.363,18.935-11.57,15.778-17.883
		C443.368,428.217,439.161,421.902,442.317,416.117 M365.132,270.949c-5.918-6.312-23.669-27.613-22.882-35.503
		c0.79-7.89,4.34-31.164,18.541-31.164c14.202,0,30.376,13.018,33.926,21.696c3.551,8.679,0.653,13.413,5.257,16.963
		c4.604,3.55,13.679,6.706,18.018,14.596c4.339,7.889,3.658,15.384,2.618,29.19c-1.04,13.808-4.195,31.558-9.719,35.111
		c-5.522,3.549-16.174,4.338-16.174,4.338c-15.779,1.973-15.779-7.891-18.54-13.412C373.415,307.24,371.048,277.26,365.132,270.949
		 M355.903,193.631c-4.492,8.678-31.009,28.796-40.081,35.108c-9.075,6.311-0.79-10.651,6.312-20.514
		c7.101-9.861,3.55-11.046-3.946-10.256c-7.494,0.788-0.394-6.705,5.918-13.019c6.312-6.311-1.578-11.835-5.522-16.567
		c-3.945-4.733-11.046-5.523,3.155-9.862s2.367,4.339,11.834,5.522c9.468,1.184,5.917-7.494,9.468-9.467
		c26.824,6.312,33.137-3.156,42.209-12.229c9.074-9.072,5.918-27.219,5.918-27.219s-8.284,1.973-22.486,4.339
		c-14.2,2.367-5.522,4.733-8.678,9.468c-3.155,4.733-7.889,3.551-11.046,1.184c-3.156-2.367-4.732-10.256-7.494-1.578
		c-2.762,8.68-4.339,1.578-16.568,2.763c-12.229,1.183-11.047-2.368-9.468-4.735c1.578-2.367,18.541-8.678,18.541-8.678l60.355-8.68
		c0,0,3.944-1.972,5.127,8.285c4.734,30.77-23.669,43.393-44.182,46.548C355.269,164.044,360.397,184.952,355.903,193.631"/>
</g>
</svg>
